<svg xmlns="http://www.w3.org/2000/svg" width="88" height="40" viewBox="0 0 88 40">
  <g id="Group_37" data-name="Group 37" transform="translate(-1241 -77)">
    <g id="Path_213" data-name="Path 213" transform="translate(1241 77)" fill="#f3f3f5">
      <path d="M 82 39 L 6 39 C 3.242988348007202 39 1 36.75701141357422 1 34 L 1 6 C 1 3.242988348007202 3.242988348007202 1 6 1 L 82 1 C 84.75701141357422 1 87 3.242988348007202 87 6 L 87 34 C 87 36.75701141357422 84.75701141357422 39 82 39 Z" stroke="none"/>
      <path d="M 6 2 C 3.794387817382812 2 2 3.794387817382812 2 6 L 2 34 C 2 36.20561218261719 3.794387817382812 38 6 38 L 82 38 C 84.20561218261719 38 86 36.20561218261719 86 34 L 86 6 C 86 3.794387817382812 84.20561218261719 2 82 2 L 6 2 M 6 0 L 82 0 C 85.31370544433594 0 88 2.686294555664062 88 6 L 88 34 C 88 37.31370544433594 85.31370544433594 40 82 40 L 6 40 C 2.686294555664062 40 0 37.31370544433594 0 34 L 0 6 C 0 2.686294555664062 2.686294555664062 0 6 0 Z" stroke="none" fill="#142328"/>
    </g>
    <rect id="Rectangle_678" data-name="Rectangle 678" width="32" height="32" rx="4" transform="translate(1291 81)" fill="#142328"/>
    <g id="wb_sunny-black-18dp" transform="translate(1253 85)">
      <path id="Path_214" data-name="Path 214" d="M0,0H24V24H0Z" fill="none"/>
      <path id="Path_215" data-name="Path 215" d="M6.76,4.84,4.96,3.05,3.55,4.46,5.34,6.25ZM4,10.5H1v2H4ZM13,.55H11V3.5h2V.55Zm7.45,3.91L19.04,3.05,17.25,4.84l1.41,1.41Zm-3.21,13.7,1.79,1.8,1.41-1.41-1.8-1.79-1.4,1.4ZM20,10.5v2h3v-2Zm-8-5a6,6,0,1,0,6,6A6,6,0,0,0,12,5.5ZM11,22.45h2V19.5H11ZM3.55,18.54l1.41,1.41,1.79-1.8L5.34,16.74Z" fill="#142328"/>
    </g>
  </g>
</svg>
