<svg xmlns="http://www.w3.org/2000/svg" width="49" height="44" viewBox="0 0 49 44">
  <g id="Group_7" data-name="Group 7" transform="translate(-1015 -75)">
    <g id="Search" transform="translate(1026 75)">
      <rect id="Rectangle_693" data-name="Rectangle 693" width="25.331" height="25.331" fill="none"/>
      <path id="Path_208" data-name="Path 208" d="M25.926,23.711l-5.381-5.4a11.217,11.217,0,0,0,2.283-6.868A11.414,11.414,0,1,0,0,11.447,11.36,11.36,0,0,0,11.414,22.893,11.143,11.143,0,0,0,18.262,20.6L23.643,26ZM3.261,11.447A8.085,8.085,0,0,1,11.414,3.27a8.085,8.085,0,0,1,8.153,8.176,8.085,8.085,0,0,1-8.153,8.176A8.085,8.085,0,0,1,3.261,11.447Z" fill="#f3f3f5"/>
    </g>
    <text id="search-2" data-name="search" transform="translate(1015 115)" fill="#f3f3f5" font-size="16" font-family="Roboto-Medium, Roboto" font-weight="500"><tspan x="0" y="0">search</tspan></text>
  </g>
</svg>
